<svg width="247" height="30" viewBox="0 0 247 30" fill="none" xmlns="http://www.w3.org/2000/svg">
<circle cx="18.8276" cy="8.6567" r="2.61361" fill="black"/>
<path d="M74.5464 5.60208L68.4535 27.4116H63.2979L59.2047 11.8825L54.9241 27.4116L49.7998 27.4429L43.9256 5.60208H48.6124L52.4557 22.5373L56.8926 5.60208H61.7669L65.9538 22.4435L69.8283 5.60208H74.5464ZM85.1311 9.8515C86.4434 9.8515 87.6099 10.1431 88.6306 10.7264C89.6513 11.2888 90.4428 12.1324 91.0053 13.2573C91.5885 14.3613 91.8801 15.6945 91.8801 17.2567V27.4116H87.5057V17.8504C87.5057 16.4756 87.162 15.4237 86.4746 14.6946C85.7872 13.9447 84.8498 13.5697 83.6625 13.5697C82.4543 13.5697 81.4961 13.9447 80.7879 14.6946C80.1005 15.4237 79.7568 16.4756 79.7568 17.8504V27.4116H75.3824V4.28976H79.7568V12.2574C80.3192 11.5075 81.0691 10.9243 82.0065 10.5077C82.9439 10.0702 83.9854 9.8515 85.1311 9.8515ZM92.8948 18.6941C92.8948 16.9443 93.2385 15.3924 93.9259 14.0384C94.6341 12.6845 95.5819 11.6429 96.7693 10.9139C97.9774 10.1848 99.321 9.82026 100.8 9.82026C102.091 9.82026 103.216 10.0806 104.175 10.6014C105.154 11.1222 105.935 11.7783 106.518 12.5699V10.1015H110.924V27.4116H106.518V24.8807C105.956 25.6931 105.174 26.3701 104.175 26.9117C103.195 27.4325 102.06 27.6928 100.769 27.6928C99.3106 27.6928 97.9774 27.3179 96.7693 26.568C95.5819 25.8181 94.6341 24.7661 93.9259 23.4122C93.2385 22.0373 92.8948 20.4646 92.8948 18.6941ZM106.518 18.7565C106.518 17.6942 106.31 16.7881 105.893 16.0382C105.476 15.2674 104.914 14.6842 104.206 14.2884C103.498 13.8718 102.737 13.6635 101.925 13.6635C101.112 13.6635 100.363 13.8614 99.6751 14.2572C98.9877 14.6529 98.4253 15.2362 97.9878 16.0069C97.5712 16.7568 97.3629 17.6525 97.3629 18.6941C97.3629 19.7356 97.5712 20.6521 97.9878 21.4437C98.4253 22.2144 98.9877 22.8081 99.6751 23.2247C100.383 23.6413 101.133 23.8496 101.925 23.8496C102.737 23.8496 103.498 23.6517 104.206 23.2559C104.914 22.8393 105.476 22.2561 105.893 21.5062C106.31 20.7354 106.518 19.8189 106.518 18.7565ZM118.269 13.6947V22.0686C118.269 22.6518 118.404 23.0789 118.675 23.3497C118.967 23.5996 119.446 23.7246 120.112 23.7246H122.143V27.4116H119.394C115.707 27.4116 113.863 25.6202 113.863 22.0373V13.6947H111.801V10.1015H113.863V5.8208H118.269V10.1015H122.143V13.6947H118.269ZM136.924 5.63332V7.94551H130.987V27.4116H128.143V7.94551H122.176V5.63332H136.924ZM146.902 9.97648C148.194 9.97648 149.36 10.2577 150.402 10.8201C151.443 11.3617 152.255 12.1845 152.839 13.2885C153.443 14.3926 153.745 15.7361 153.745 17.3192V27.4116H150.933V17.7254C150.933 16.0173 150.506 14.7154 149.652 13.8197C148.798 12.9032 147.631 12.4449 146.152 12.4449C144.652 12.4449 143.455 12.9136 142.559 13.851C141.684 14.7883 141.247 16.1527 141.247 17.9442V27.4116H138.403V4.28976H141.247V12.7261C141.809 11.8512 142.58 11.1742 143.559 10.6951C144.559 10.216 145.673 9.97648 146.902 9.97648ZM171.992 18.1941C171.992 18.7357 171.961 19.3086 171.898 19.9126H158.213C158.317 21.5999 158.89 22.9226 159.931 23.8808C160.994 24.8182 162.275 25.2869 163.774 25.2869C165.003 25.2869 166.024 25.0057 166.836 24.4433C167.67 23.86 168.253 23.0893 168.586 22.1311H171.648C171.19 23.7767 170.274 25.1203 168.899 26.1618C167.524 27.1825 165.816 27.6928 163.774 27.6928C162.15 27.6928 160.691 27.3283 159.4 26.5992C158.129 25.8702 157.129 24.8391 156.4 23.5059C155.671 22.1519 155.307 20.5896 155.307 18.819C155.307 17.0484 155.661 15.4966 156.369 14.1634C157.077 12.8303 158.067 11.8096 159.337 11.1013C160.629 10.3723 162.108 10.0077 163.774 10.0077C165.399 10.0077 166.836 10.3618 168.086 11.0701C169.336 11.7783 170.294 12.7574 170.961 14.0072C171.648 15.2362 171.992 16.6318 171.992 18.1941ZM169.055 17.6005C169.055 16.5173 168.815 15.5903 168.336 14.8196C167.857 14.028 167.201 13.4343 166.368 13.0386C165.555 12.622 164.649 12.4137 163.649 12.4137C162.212 12.4137 160.983 12.8719 159.962 13.7885C158.963 14.705 158.39 15.9757 158.244 17.6005H169.055ZM181.099 5.60208C183.39 5.60208 185.4 6.04993 187.129 6.94564C188.879 7.84136 190.223 9.12243 191.16 10.7889C192.118 12.4345 192.597 14.3509 192.597 16.5381C192.597 18.7253 192.118 20.6417 191.16 22.2873C190.223 23.9121 188.879 25.1723 187.129 26.0681C185.4 26.9638 183.39 27.4116 181.099 27.4116H173.475V5.60208H181.099ZM180.943 23.6934C183.234 23.6934 185.005 23.0685 186.254 21.8186C187.504 20.5688 188.129 18.8086 188.129 16.5381C188.129 14.2676 187.504 12.497 186.254 11.2263C185.005 9.93482 183.234 9.28908 180.943 9.28908H177.849V23.6934H180.943ZM210.193 10.1015V27.4116H205.787V25.2244C205.225 25.9743 204.485 26.568 203.569 27.0054C202.673 27.422 201.694 27.6303 200.632 27.6303C199.278 27.6303 198.08 27.3491 197.038 26.7867C195.997 26.2035 195.174 25.3598 194.57 24.2558C193.987 23.131 193.695 21.7978 193.695 20.2563V10.1015H198.07V19.6314C198.07 21.0062 198.413 22.0686 199.101 22.8185C199.788 23.5476 200.725 23.9121 201.913 23.9121C203.121 23.9121 204.069 23.5476 204.756 22.8185C205.444 22.0686 205.787 21.0062 205.787 19.6314V10.1015H210.193ZM211.364 18.7565C211.364 16.9651 211.728 15.4028 212.457 14.0697C213.186 12.7157 214.197 11.6742 215.488 10.9451C216.78 10.1952 218.259 9.82026 219.925 9.82026C222.071 9.82026 223.841 10.3618 225.237 11.445C226.653 12.5074 227.601 14.0072 228.08 15.9444H223.362C223.112 15.1945 222.685 14.6113 222.081 14.1947C221.498 13.7572 220.769 13.5385 219.894 13.5385C218.644 13.5385 217.655 13.9968 216.926 14.9133C216.196 15.809 215.832 17.0901 215.832 18.7565C215.832 20.4022 216.196 21.6832 216.926 22.5998C217.655 23.4955 218.644 23.9433 219.894 23.9433C221.665 23.9433 222.821 23.1518 223.362 21.5687H228.08C227.601 23.4434 226.653 24.9328 225.237 26.0368C223.82 27.1408 222.05 27.6928 219.925 27.6928C218.259 27.6928 216.78 27.3283 215.488 26.5992C214.197 25.8493 213.186 24.8078 212.457 23.4747C211.728 22.1207 211.364 20.548 211.364 18.7565ZM239.513 27.4116L233.639 20.0376V27.4116H229.265V4.28976H233.639V17.4442L239.451 10.1015H245.137L237.513 18.7878L245.2 27.4116H239.513Z" fill="black"/>
<path d="M30.8529 2.59836H18.0892C14.7434 2.59836 12.031 5.31071 12.031 8.65657C12.031 12.0024 14.7434 14.7148 18.0892 14.7148H23.2199C27.4355 14.7148 30.8529 11.2974 30.8529 7.08184V2.59836Z" stroke="url(#paint0_linear_126_5798)" stroke-width="3.64056"/>
<path d="M2.7764 15.1999H20.3969C23.7428 15.1999 26.4551 17.9123 26.4551 21.2581C26.4551 24.604 23.7428 27.3163 20.3969 27.3163H10.4094C6.19379 27.3163 2.7764 23.899 2.7764 19.6834V15.1999Z" stroke="#C3F862" stroke-width="3.64056"/>
<defs>
<linearGradient id="paint0_linear_126_5798" x1="21.442" y1="8.65659" x2="21.4419" y2="16.5351" gradientUnits="userSpaceOnUse">
<stop stop-color="#C3F862"/>
<stop offset="1" stop-color="#829E4E"/>
</linearGradient>
</defs>
</svg>
