<svg width="247" height="29" viewBox="0 0 247 29" fill="none" xmlns="http://www.w3.org/2000/svg">
<path d="M74.3138 4.99563L68.2208 26.8052H63.0653L58.9721 11.276L54.6914 26.8052L49.5671 26.8364L43.6929 4.99563H48.3798L52.223 21.9308L56.6599 4.99563H61.5342L65.7212 21.8371L69.5956 4.99563H74.3138ZM84.8984 9.24506C86.2107 9.24506 87.3772 9.53668 88.3979 10.1199C89.4186 10.6824 90.2102 11.526 90.7726 12.6508C91.3558 13.7549 91.6475 15.088 91.6475 16.6503V26.8052H87.2731V17.244C87.2731 15.8692 86.9294 14.8172 86.242 14.0881C85.5545 13.3383 84.6172 12.9633 83.4298 12.9633C82.2217 12.9633 81.2635 13.3383 80.5552 14.0881C79.8678 14.8172 79.5241 15.8692 79.5241 17.244V26.8052H75.1497V3.68331H79.5241V11.651C80.0865 10.9011 80.8364 10.3178 81.7738 9.90122C82.7112 9.46378 83.7527 9.24506 84.8984 9.24506ZM92.6621 18.0876C92.6621 16.3378 93.0058 14.786 93.6932 13.432C94.4015 12.078 95.3493 11.0365 96.5366 10.3074C97.7448 9.57834 99.0883 9.21381 100.567 9.21381C101.859 9.21381 102.984 9.47419 103.942 9.99495C104.921 10.5157 105.702 11.1719 106.285 11.9634V9.49502H110.691V26.8052H106.285V24.2743C105.723 25.0867 104.942 25.7637 103.942 26.3052C102.963 26.826 101.828 27.0864 100.536 27.0864C99.0779 27.0864 97.7448 26.7114 96.5366 25.9615C95.3493 25.2116 94.4015 24.1597 93.6932 22.8057C93.0058 21.4309 92.6621 19.8582 92.6621 18.0876ZM106.285 18.1501C106.285 17.0877 106.077 16.1816 105.66 15.4317C105.244 14.661 104.681 14.0777 103.973 13.682C103.265 13.2653 102.505 13.057 101.692 13.057C100.88 13.057 100.13 13.2549 99.4425 13.6507C98.755 14.0465 98.1926 14.6297 97.7552 15.4005C97.3386 16.1504 97.1303 17.0461 97.1303 18.0876C97.1303 19.1291 97.3386 20.0457 97.7552 20.8372C98.1926 21.608 98.755 22.2016 99.4425 22.6182C100.151 23.0349 100.901 23.2432 101.692 23.2432C102.505 23.2432 103.265 23.0453 103.973 22.6495C104.681 22.2329 105.244 21.6496 105.66 20.8997C106.077 20.129 106.285 19.2125 106.285 18.1501ZM118.036 13.0883V21.4622C118.036 22.0454 118.171 22.4724 118.442 22.7432C118.734 22.9932 119.213 23.1182 119.88 23.1182H121.91V26.8052H119.161C115.474 26.8052 113.63 25.0138 113.63 21.4309V13.0883H111.568V9.49502H113.63V5.21435H118.036V9.49502H121.91V13.0883H118.036ZM136.691 5.02688V7.33906H130.754V26.8052H127.911V7.33906H121.943V5.02688H136.691ZM146.669 9.37004C147.961 9.37004 149.127 9.65125 150.169 10.2137C151.21 10.7553 152.023 11.5781 152.606 12.6821C153.21 13.7861 153.512 15.1297 153.512 16.7128V26.8052H150.7V17.119C150.7 15.4109 150.273 14.109 149.419 13.2133C148.565 12.2967 147.398 11.8385 145.919 11.8385C144.42 11.8385 143.222 12.3071 142.326 13.2445C141.451 14.1819 141.014 15.5463 141.014 17.3377V26.8052H138.171V3.68331H141.014V12.1197C141.576 11.2448 142.347 10.5678 143.326 10.0887C144.326 9.60959 145.44 9.37004 146.669 9.37004ZM171.759 17.5877C171.759 18.1293 171.728 18.7021 171.666 19.3062H157.98C158.084 20.9935 158.657 22.3162 159.699 23.2744C160.761 24.2118 162.042 24.6805 163.542 24.6805C164.771 24.6805 165.791 24.3993 166.604 23.8368C167.437 23.2536 168.02 22.4828 168.354 21.5246H171.416C170.957 23.1703 170.041 24.5138 168.666 25.5553C167.291 26.576 165.583 27.0864 163.542 27.0864C161.917 27.0864 160.459 26.7219 159.167 25.9928C157.897 25.2637 156.897 24.2326 156.168 22.8995C155.439 21.5455 155.074 19.9832 155.074 18.2126C155.074 16.442 155.428 14.8901 156.136 13.557C156.845 12.2238 157.834 11.2031 159.105 10.4949C160.396 9.76582 161.875 9.40128 163.542 9.40128C165.167 9.40128 166.604 9.7554 167.854 10.4636C169.103 11.1719 170.062 12.1509 170.728 13.4007C171.416 14.6297 171.759 16.0254 171.759 17.5877ZM168.822 16.994C168.822 15.9108 168.583 14.9839 168.104 14.2131C167.625 13.4216 166.968 12.8279 166.135 12.4321C165.323 12.0155 164.417 11.8072 163.417 11.8072C161.979 11.8072 160.75 12.2655 159.73 13.182C158.73 14.0986 158.157 15.3692 158.011 16.994H168.822ZM180.866 4.99563C183.158 4.99563 185.168 5.44349 186.897 6.3392C188.646 7.23491 189.99 8.51599 190.927 10.1824C191.886 11.828 192.365 13.7444 192.365 15.9316C192.365 18.1189 191.886 20.0353 190.927 21.6809C189.99 23.3057 188.646 24.5659 186.897 25.4616C185.168 26.3573 183.158 26.8052 180.866 26.8052H173.242V4.99563H180.866ZM180.71 23.0869C183.001 23.0869 184.772 22.462 186.022 21.2122C187.272 19.9624 187.896 18.2022 187.896 15.9316C187.896 13.6611 187.272 11.8905 186.022 10.6199C184.772 9.32838 183.001 8.68263 180.71 8.68263H177.617V23.0869H180.71ZM209.96 9.49502V26.8052H205.555V24.618C204.992 25.3679 204.253 25.9615 203.336 26.399C202.44 26.8156 201.461 27.0239 200.399 27.0239C199.045 27.0239 197.847 26.7427 196.806 26.1803C195.764 25.597 194.941 24.7534 194.337 23.6494C193.754 22.5245 193.463 21.1914 193.463 19.6499V9.49502H197.837V19.025C197.837 20.3998 198.181 21.4621 198.868 22.212C199.555 22.9411 200.493 23.3057 201.68 23.3057C202.888 23.3057 203.836 22.9411 204.524 22.212C205.211 21.4621 205.555 20.3998 205.555 19.025V9.49502H209.96ZM211.131 18.1501C211.131 16.3587 211.496 14.7964 212.225 13.4632C212.954 12.1093 213.964 11.0677 215.256 10.3387C216.547 9.58876 218.026 9.21381 219.692 9.21381C221.838 9.21381 223.609 9.7554 225.004 10.8386C226.421 11.9009 227.369 13.4007 227.848 15.338H223.13C222.88 14.5881 222.453 14.0048 221.848 13.5882C221.265 13.1508 220.536 12.9321 219.661 12.9321C218.411 12.9321 217.422 13.3903 216.693 14.3069C215.964 15.2026 215.599 16.4837 215.599 18.1501C215.599 19.7957 215.964 21.0768 216.693 21.9933C217.422 22.889 218.411 23.3369 219.661 23.3369C221.432 23.3369 222.588 22.5453 223.13 20.9622H227.848C227.369 22.837 226.421 24.3263 225.004 25.4304C223.588 26.5344 221.817 27.0864 219.692 27.0864C218.026 27.0864 216.547 26.7219 215.256 25.9928C213.964 25.2429 212.954 24.2014 212.225 22.8682C211.496 21.5142 211.131 19.9415 211.131 18.1501ZM239.281 26.8052L233.406 19.4312V26.8052H229.032V3.68331H233.406V16.8378L239.218 9.49502H244.905L237.281 18.1813L244.967 26.8052H239.281Z" fill="#131314"/>
<circle cx="18.5948" cy="8.05025" r="2.61361" fill="black"/>
<path d="M30.6201 1.99191H17.8565C14.5107 1.99191 11.7983 4.70427 11.7983 8.05013C11.7983 11.396 14.5107 14.1083 17.8565 14.1083H22.9872C27.2028 14.1083 30.6201 10.691 30.6201 6.47539V1.99191Z" stroke="url(#paint0_linear_126_5810)" stroke-width="3.64056"/>
<path d="M2.54367 14.5935H20.1642C23.51 14.5935 26.2224 17.3058 26.2224 20.6517C26.2224 23.9975 23.5101 26.7099 20.1642 26.7099H10.1766C5.96106 26.7099 2.54367 23.2925 2.54367 19.077V14.5935Z" stroke="#9DD830" stroke-width="3.64056"/>
<defs>
<linearGradient id="paint0_linear_126_5810" x1="21.2092" y1="8.05014" x2="21.2092" y2="15.9286" gradientUnits="userSpaceOnUse">
<stop stop-color="#9DD830"/>
<stop offset="1" stop-color="#C3F862"/>
</linearGradient>
</defs>
</svg>
